<svg xmlns="http://www.w3.org/2000/svg" style="display:none;">
    <symbol id="arrow-link" width="20" height="20" viewBox="0 0 20 20">
        <path fill-rule="evenodd" clip-rule="evenodd" d="M6.875 3.125L16.25 3.125C16.4158 3.125 16.5747 3.19085 16.6919 3.30806C16.8092 3.42527 16.875 3.58424 16.875 3.75V13.125C16.875 13.4702 16.5952 13.75 16.25 13.75C15.9048 13.75 15.625 13.4702 15.625 13.125V5.25888L4.19194 16.6919C3.94786 16.936 3.55214 16.936 3.30806 16.6919C3.06398 16.4479 3.06398 16.0521 3.30806 15.8081L14.7411 4.375L6.875 4.375C6.52982 4.375 6.25 4.09518 6.25 3.75C6.25 3.40482 6.52982 3.125 6.875 3.125Z" fill="#FFD11A"/>
    </symbol>
    <symbol id="logo-main" width="179" height="50" viewBox="0 0 179 50">
        <path d="M164.629 16.3636H167.699V21.0746L167.511 23.1605H167.699C168.027 22.6136 168.496 22.1683 169.105 21.8246C169.73 21.4652 170.425 21.2855 171.191 21.2855C172.675 21.2855 173.769 21.723 174.472 22.598C175.191 23.473 175.55 24.6683 175.55 26.184V33.1449H172.48V26.559C172.48 25.7621 172.293 25.1605 171.918 24.7543C171.543 24.3324 171.019 24.1215 170.347 24.1215C169.925 24.1215 169.55 24.2152 169.222 24.4027C168.894 24.5746 168.613 24.8168 168.379 25.1293C168.16 25.4418 167.988 25.809 167.863 26.2308C167.754 26.6371 167.699 27.0746 167.699 27.5433V33.1449H164.629V16.3636Z" fill="white"/>
        <path d="M163.459 30.2152C162.959 31.184 162.255 31.9808 161.349 32.6058C160.459 33.2152 159.341 33.5199 157.998 33.5199C157.107 33.5199 156.287 33.3715 155.537 33.0746C154.802 32.7621 154.162 32.3324 153.615 31.7855C153.083 31.2386 152.662 30.598 152.349 29.8636C152.052 29.1136 151.904 28.2933 151.904 27.4027C151.904 26.5121 152.052 25.6918 152.349 24.9418C152.662 24.1918 153.083 23.5511 153.615 23.0199C154.162 22.473 154.802 22.0511 155.537 21.7543C156.287 21.4418 157.107 21.2855 157.998 21.2855C159.326 21.2855 160.443 21.5902 161.349 22.1996C162.255 22.809 162.919 23.598 163.341 24.5668L160.529 25.7386C160.263 25.2074 159.919 24.809 159.498 24.5433C159.091 24.2621 158.576 24.1215 157.951 24.1215C157.544 24.1215 157.162 24.1996 156.802 24.3558C156.443 24.5121 156.123 24.7308 155.841 25.0121C155.576 25.2933 155.365 25.6371 155.208 26.0433C155.052 26.4496 154.974 26.9027 154.974 27.4027C154.974 27.9027 155.052 28.3558 155.208 28.7621C155.365 29.1683 155.576 29.5121 155.841 29.7933C156.123 30.0746 156.443 30.2933 156.802 30.4496C157.162 30.6058 157.544 30.684 157.951 30.684C158.591 30.684 159.13 30.5433 159.568 30.2621C160.021 29.9652 160.38 29.5433 160.646 28.9965L163.459 30.2152Z" fill="white"/>
        <path d="M151 30.3793C150.469 31.3168 149.75 32.0746 148.844 32.6527C147.953 33.2308 146.86 33.5199 145.563 33.5199C144.688 33.5199 143.875 33.3715 143.125 33.0746C142.391 32.7621 141.75 32.3324 141.203 31.7855C140.657 31.2386 140.227 30.598 139.914 29.8636C139.618 29.1136 139.469 28.2933 139.469 27.4027C139.469 26.5746 139.618 25.7933 139.914 25.059C140.211 24.309 140.625 23.6605 141.157 23.1136C141.688 22.5511 142.313 22.1058 143.032 21.7777C143.766 21.4496 144.571 21.2855 145.446 21.2855C146.368 21.2855 147.188 21.4418 147.907 21.7543C148.625 22.0511 149.227 22.473 149.711 23.0199C150.196 23.5511 150.563 24.184 150.813 24.9183C151.063 25.6527 151.188 26.4496 151.188 27.309C151.188 27.4183 151.188 27.5121 151.188 27.5902C151.172 27.684 151.164 27.7699 151.164 27.848C151.149 27.9261 151.141 28.0121 151.141 28.1058H142.493C142.555 28.5746 142.68 28.9808 142.868 29.3246C143.071 29.6527 143.313 29.934 143.594 30.1683C143.891 30.3871 144.211 30.5511 144.555 30.6605C144.899 30.7543 145.25 30.8011 145.61 30.8011C146.313 30.8011 146.891 30.6449 147.344 30.3324C147.813 30.0043 148.18 29.598 148.446 29.1136L151 30.3793ZM148.211 25.9261C148.196 25.723 148.125 25.4965 148 25.2465C147.891 24.9965 147.719 24.7621 147.485 24.5433C147.266 24.3246 146.985 24.1449 146.641 24.0043C146.313 23.8636 145.914 23.7933 145.446 23.7933C144.789 23.7933 144.211 23.9808 143.711 24.3558C143.211 24.7308 142.86 25.2543 142.657 25.9261H148.211Z" fill="white"/>
        <path d="M132.979 33.1449V19.3636H128.291V16.3636H140.83V19.3636H136.143V33.1449H132.979Z" fill="white"/>
        <path d="M127.596 30.3793C127.065 31.3168 126.346 32.0746 125.44 32.6527C124.549 33.2308 123.455 33.5199 122.158 33.5199C121.283 33.5199 120.471 33.3715 119.721 33.0746C118.986 32.7621 118.346 32.3324 117.799 31.7855C117.252 31.2386 116.822 30.598 116.51 29.8636C116.213 29.1136 116.065 28.2933 116.065 27.4027C116.065 26.5746 116.213 25.7933 116.51 25.059C116.807 24.309 117.221 23.6605 117.752 23.1136C118.283 22.5511 118.908 22.1058 119.627 21.7777C120.361 21.4496 121.166 21.2855 122.041 21.2855C122.963 21.2855 123.783 21.4418 124.502 21.7543C125.221 22.0511 125.822 22.473 126.307 23.0199C126.791 23.5511 127.158 24.184 127.408 24.9183C127.658 25.6527 127.783 26.4496 127.783 27.309C127.783 27.4183 127.783 27.5121 127.783 27.5902C127.768 27.684 127.76 27.7699 127.76 27.848C127.744 27.9261 127.736 28.0121 127.736 28.1058H119.088C119.151 28.5746 119.276 28.9808 119.463 29.3246C119.666 29.6527 119.908 29.934 120.19 30.1683C120.486 30.3871 120.807 30.5511 121.151 30.6605C121.494 30.7543 121.846 30.8011 122.205 30.8011C122.908 30.8011 123.486 30.6449 123.94 30.3324C124.408 30.0043 124.776 29.598 125.041 29.1136L127.596 30.3793ZM124.807 25.9261C124.791 25.723 124.721 25.4965 124.596 25.2465C124.486 24.9965 124.315 24.7621 124.08 24.5433C123.861 24.3246 123.58 24.1449 123.236 24.0043C122.908 23.8636 122.51 23.7933 122.041 23.7933C121.385 23.7933 120.807 23.9808 120.307 24.3558C119.807 24.7308 119.455 25.2543 119.252 25.9261H124.807Z" fill="white"/>
        <path d="M108.589 21.6605H111.472V23.2543H111.66C111.8 22.973 111.988 22.7152 112.222 22.4808C112.456 22.2465 112.714 22.0433 112.995 21.8715C113.292 21.6996 113.605 21.5668 113.933 21.473C114.277 21.3793 114.613 21.3324 114.941 21.3324C115.347 21.3324 115.691 21.3715 115.972 21.4496C116.269 21.5277 116.519 21.6293 116.722 21.7543L115.902 24.5433C115.714 24.4496 115.503 24.3793 115.269 24.3324C115.05 24.2699 114.777 24.2386 114.449 24.2386C114.027 24.2386 113.644 24.3246 113.3 24.4965C112.956 24.6527 112.66 24.8793 112.41 25.1761C112.175 25.473 111.988 25.8246 111.847 26.2308C111.722 26.6215 111.66 27.0511 111.66 27.5199V33.1449H108.589V21.6605Z" fill="white"/>
        <path d="M103.779 31.6449H103.592C103.232 32.223 102.748 32.684 102.139 33.0277C101.529 33.3558 100.834 33.5199 100.053 33.5199C98.5996 33.5199 97.5137 33.0746 96.7949 32.184C96.0918 31.2933 95.7402 30.1058 95.7402 28.6215V21.6605H98.8105V28.2465C98.8105 29.0746 98.9902 29.6918 99.3496 30.098C99.7246 30.4886 100.264 30.684 100.967 30.684C101.389 30.684 101.756 30.598 102.068 30.4261C102.396 30.2386 102.67 29.9965 102.889 29.6996C103.123 29.3871 103.295 29.0277 103.404 28.6215C103.529 28.1996 103.592 27.7543 103.592 27.2855V21.6605H106.662V33.1449H103.779V31.6449Z" fill="white"/>
        <path d="M88.3958 24.2855H86.3801V21.6605H88.3958V18.1449H91.4661V21.6605H94.2786V24.2855H91.4661V28.7387C91.4661 29.0043 91.4895 29.2543 91.5364 29.4886C91.5989 29.7074 91.7083 29.8949 91.8645 30.0512C92.0833 30.3012 92.3958 30.4262 92.802 30.4262C93.0676 30.4262 93.2786 30.4027 93.4348 30.3558C93.5911 30.2933 93.7395 30.2152 93.8801 30.1215L94.7473 32.8168C94.3879 32.9887 93.9973 33.1137 93.5754 33.1918C93.1692 33.2855 92.7161 33.3324 92.2161 33.3324C91.6379 33.3324 91.1145 33.2465 90.6458 33.0746C90.1926 32.8871 89.8098 32.6371 89.4973 32.3246C88.7629 31.6215 88.3958 30.6215 88.3958 29.3246V24.2855Z" fill="white"/>
        <path d="M82.2058 31.6449H82.0183C81.6589 32.223 81.1746 32.684 80.5652 33.0277C79.9558 33.3558 79.2605 33.5199 78.4792 33.5199C77.0261 33.5199 75.9402 33.0746 75.2214 32.184C74.5183 31.2933 74.1667 30.1058 74.1667 28.6215V21.6605H77.2371V28.2465C77.2371 29.0746 77.4167 29.6918 77.7761 30.098C78.1511 30.4886 78.6902 30.684 79.3933 30.684C79.8152 30.684 80.1824 30.598 80.4949 30.4261C80.823 30.2386 81.0964 29.9965 81.3152 29.6996C81.5496 29.3871 81.7214 29.0277 81.8308 28.6215C81.9558 28.1996 82.0183 27.7543 82.0183 27.2855V21.6605H85.0886V33.1449H82.2058V31.6449Z" fill="white"/>
        <path d="M62.7273 16.3636H73.3679V19.3636H65.8914V23.4418H72.6179V26.4418H65.8914V33.1449H62.7273V16.3636Z" fill="white"/>
        <path d="M33.3333 50V41.6666C37.9444 41.6666 41.6666 37.9444 41.6666 33.3333H49.9999C49.9999 42.5555 42.5277 50 33.3333 50Z" fill="#FFD11A"/>
        <path d="M33.3333 50V41.6666C28.7222 41.6666 25 37.9444 25 33.3333H16.6666C16.6666 42.5555 24.1388 50 33.3333 50Z" fill="#FFD11A"/>
        <path d="M0 33.3334H8.33333C8.33333 37.9445 12.0556 41.6667 16.6667 41.6667V50C7.47222 50 0 42.5556 0 33.3334Z" fill="#FFD11A"/>
        <path d="M0 33.3334H8.33333C8.33333 28.7222 12.0556 25 16.6667 25V16.6667C7.47222 16.6667 0 24.1389 0 33.3334Z" fill="#FFD11A"/>
        <path d="M16.6667 0V8.33333C12.0556 8.33333 8.33333 12.0556 8.33333 16.6667H0C0 7.47222 7.47222 0 16.6667 0Z" fill="#FFD11A"/>
        <path d="M16.6666 0V8.33333C21.2777 8.33333 25 12.0556 25 16.6667H33.3333C33.3333 7.47222 25.8611 0 16.6666 0Z" fill="#FFD11A"/>
        <path d="M50 16.6667H41.6667C41.6667 12.0556 37.9445 8.33333 33.3334 8.33333V0C42.5278 0 50 7.47222 50 16.6667Z" fill="#FFD11A"/>
        <path d="M50 16.6667H41.6667C41.6667 21.2778 37.9445 25 33.3334 25V33.3334C42.5278 33.3334 50 25.8889 50 16.6667Z" fill="#FFD11A"/>
    </symbol>
    <symbol id="spt-icon1" width="80" height="80" viewBox="0 0 80 80">
        <path d="M48.7013 27.2154L19.5179 56L11.2987 47.8932C6.90042 43.555 6.90042 36.5214 11.2987 32.1832L32.5183 11.2536C36.9166 6.91545 44.0477 6.91545 48.446 11.2537L48.7013 11.5054C53.0996 15.8436 53.0996 22.8772 48.7013 27.2154Z" fill="#FFD11A"/>
        <path d="M31.2987 52.7846L60.4821 24L68.7013 32.1068C73.0996 36.445 73.0996 43.4786 68.7013 47.8168L47.4817 68.7463C43.0834 73.0845 35.9523 73.0845 31.554 68.7463L31.2987 68.4946C26.9004 64.1564 26.9004 57.1228 31.2987 52.7846Z" fill="#404040"/>
    </symbol>
    <symbol id="spt-icon2" width="80" height="80" viewBox="0 0 80 80">
        <path d="M8 13.9999L72 13.9999L54 41.9999C34.212 41.9999 17.8176 31.1807 8 13.9999Z" fill="#FFD11A"/>
        <path d="M72 65.9999L8 65.9999L26 37.9999C45.788 37.9999 62.1824 48.8192 72 65.9999Z" fill="#404040"/>
    </symbol>
    <symbol id="logo-footer" width="150" height="150" viewBox="0 0 150 150">
                <path
              d="M99.999 149.999V125C113.832 125 124.999 113.833 124.999 100H149.998C149.998 127.666 127.582 149.999 99.999 149.999Z"
              fill="#FFD11A"
            />
            <path
              d="M99.9994 149.999V125C86.1662 125 74.9997 113.833 74.9997 100H50C50 127.666 72.4164 149.999 99.9994 149.999Z"
              fill="#FFD11A"
            />
            <path
              d="M0 99.9976H24.9997C24.9997 113.831 36.1662 124.997 49.9994 124.997V149.997C22.4164 149.997 0 127.664 0 99.9976Z"
              fill="#FFD11A"
            />
            <path
              d="M0 99.9989H24.9997C24.9997 86.1658 36.1662 74.9992 49.9994 74.9992V49.9995C22.4164 49.9995 0 72.4159 0 99.9989Z"
              fill="#FFD11A"
            />
            <path
              d="M49.9994 0V24.9997C36.1662 24.9997 24.9997 36.1662 24.9997 49.9994H0C0 22.4164 22.4164 0 49.9994 0Z"
              fill="#FFD11A"
            />
            <path
              d="M50 0V24.9997C63.8332 24.9997 74.9997 36.1662 74.9997 49.9994H99.9994C99.9994 22.4164 77.583 0 50 0Z"
              fill="#FFD11A"
            />
            <path
              d="M149.998 49.9994H124.999C124.999 36.1662 113.832 24.9997 99.999 24.9997V0C127.582 0 149.998 22.4164 149.998 49.9994Z"
              fill="#FFD11A"
            />
            <path
              d="M149.998 49.999H124.999C124.999 63.8322 113.832 74.9987 99.999 74.9987V99.9984C127.582 99.9984 149.998 77.6654 149.998 49.999Z"
              fill="#FFD11A"
            />
    </symbol>
    <symbol id="arrow-link-footer" width="20" height="20" viewBox="0 0 20 20">
        <path fill-rule="evenodd" clip-rule="evenodd" d="M6.875 3.125L16.25 3.125C16.4158 3.125 16.5747 3.19085 16.6919 3.30806C16.8092 3.42527 16.875 3.58424 16.875 3.75V13.125C16.875 13.4702 16.5952 13.75 16.25 13.75C15.9048 13.75 15.625 13.4702 15.625 13.125V5.25888L4.19194 16.6919C3.94786 16.936 3.55214 16.936 3.30806 16.6919C3.06398 16.4479 3.06398 16.0521 3.30806 15.8081L14.7411 4.375L6.875 4.375C6.52982 4.375 6.25 4.09518 6.25 3.75C6.25 3.40482 6.52982 3.125 6.875 3.125Z" fill="rgba(20, 20, 20, 1)"/>
    </symbol>
    <symbol id="rating" width="180" height="44" viewBox="0 0 180 44">
        <rect x="0.5" y="0.5" width="179" height="43" rx="21.5" fill="#141414"/>
        <rect x="0.5" y="0.5" width="179" height="43" rx="21.5" stroke="#262626"/>
        <path d="M26.2747 12.9429C27.0473 11.6249 28.9527 11.6249 29.7253 12.9429L31.4512 15.8866C31.7332 16.3676 32.2031 16.709 32.7477 16.8286L36.0807 17.5603C37.5729 17.8879 38.1617 19.7 37.147 20.8421L34.8806 23.3931C34.5103 23.8099 34.3308 24.3624 34.3854 24.9173L34.7195 28.3132C34.869 29.8337 33.3276 30.9536 31.9278 30.3415L28.8013 28.9744C28.2904 28.751 27.7096 28.751 27.1987 28.9744L24.0722 30.3415C22.6724 30.9536 21.131 29.8337 21.2805 28.3132L21.6146 24.9173C21.6692 24.3624 21.4897 23.8099 21.1194 23.3931L18.853 20.8421C17.8383 19.7 18.4271 17.8879 19.9193 17.5603L23.2523 16.8286C23.7969 16.709 24.2668 16.3676 24.5488 15.8866L26.2747 12.9429Z" fill="#FFCE22"/>
        <path d="M57.2747 12.9429C58.0473 11.6249 59.9527 11.6249 60.7253 12.9429L62.4512 15.8866C62.7332 16.3676 63.2031 16.709 63.7477 16.8286L67.0807 17.5603C68.5729 17.8879 69.1617 19.7 68.147 20.8421L65.8806 23.3931C65.5103 23.8099 65.3308 24.3624 65.3854 24.9173L65.7195 28.3132C65.869 29.8337 64.3276 30.9536 62.9278 30.3415L59.8013 28.9744C59.2904 28.751 58.7096 28.751 58.1987 28.9744L55.0722 30.3415C53.6724 30.9536 52.131 29.8337 52.2805 28.3132L52.6146 24.9173C52.6692 24.3624 52.4897 23.8099 52.1194 23.3931L49.853 20.8421C48.8383 19.7 49.4271 17.8879 50.9193 17.5603L54.2523 16.8286C54.7969 16.709 55.2668 16.3676 55.5488 15.8866L57.2747 12.9429Z" fill="#FFCE22"/>
        <path d="M88.2747 12.9429C89.0473 11.6249 90.9527 11.6249 91.7253 12.9429L93.4512 15.8866C93.7332 16.3676 94.2031 16.709 94.7477 16.8286L98.0807 17.5603C99.5729 17.8879 100.162 19.7 99.147 20.8421L96.8806 23.3931C96.5103 23.8099 96.3308 24.3624 96.3854 24.9173L96.7195 28.3132C96.869 29.8337 95.3276 30.9536 93.9278 30.3415L90.8013 28.9744C90.2904 28.751 89.7096 28.751 89.1987 28.9744L86.0722 30.3415C84.6724 30.9536 83.131 29.8337 83.2805 28.3132L83.6146 24.9173C83.6692 24.3624 83.4897 23.8099 83.1194 23.3931L80.853 20.8421C79.8383 19.7 80.4271 17.8879 81.9193 17.5603L85.2523 16.8286C85.7969 16.709 86.2668 16.3676 86.5488 15.8866L88.2747 12.9429Z" fill="#FFCE22"/>
        <path d="M119.275 12.9429C120.047 11.6249 121.953 11.6249 122.725 12.9429L124.451 15.8866C124.733 16.3676 125.203 16.709 125.748 16.8286L129.081 17.5603C130.573 17.8879 131.162 19.7 130.147 20.8421L127.881 23.3931C127.51 23.8099 127.331 24.3624 127.385 24.9173L127.719 28.3132C127.869 29.8337 126.328 30.9536 124.928 30.3415L121.801 28.9744C121.29 28.751 120.71 28.751 120.199 28.9744L117.072 30.3415C115.672 30.9536 114.131 29.8337 114.281 28.3132L114.615 24.9173C114.669 24.3624 114.49 23.8099 114.119 23.3931L111.853 20.8421C110.838 19.7 111.427 17.8879 112.919 17.5603L116.252 16.8286C116.797 16.709 117.267 16.3676 117.549 15.8866L119.275 12.9429Z" fill="#FFCE22"/>
        <path d="M150.275 12.9429C151.047 11.6249 152.953 11.6249 153.725 12.9429L155.451 15.8866C155.733 16.3676 156.203 16.709 156.748 16.8286L160.081 17.5603C161.573 17.8879 162.162 19.7 161.147 20.8421L158.881 23.3931C158.51 23.8099 158.331 24.3624 158.385 24.9173L158.719 28.3132C158.869 29.8337 157.328 30.9536 155.928 30.3415L152.801 28.9744C152.29 28.751 151.71 28.751 151.199 28.9744L148.072 30.3415C146.672 30.9536 145.131 29.8337 145.281 28.3132L145.615 24.9173C145.669 24.3624 145.49 23.8099 145.119 23.3931L142.853 20.8421C141.838 19.7 142.427 17.8879 143.919 17.5603L147.252 16.8286C147.797 16.709 148.267 16.3676 148.549 15.8866L150.275 12.9429Z" fill="#FFCE22"/>
    </symbol>
    <symbol id="resources1" width="60" height="60" viewBox="0 0 60 60">
        <path d="M42 42H18V18L42 42Z" fill="#404040"/>
        <path d="M54 6H6L18 18L42 18L42 42L54 54V6Z" fill="#FFD11A"/>
    </symbol>
    <symbol id="resources2" width="60" height="60" viewBox="0 0 60 60">
        <path d="M50.1034 9.8967C55.7244 15.5177 55.1922 25.1632 48.9725 31.3829L37.664 42.6915L17.3086 22.3361L28.6171 11.0276C34.8368 4.80786 44.4824 4.27572 50.1034 9.8967Z" fill="#FFD11A"/>
        <path d="M26.3554 54L6 33.6446C12.2455 27.3991 21.8653 26.8928 27.4862 32.5138C33.1072 38.1347 32.6009 47.7545 26.3554 54Z" fill="#404040"/>
        <path d="M47.8398 52.8691L27.4844 32.5138C33.7299 26.2682 43.3496 25.7619 48.9706 31.3829C54.5916 37.0039 54.0853 46.6236 47.8398 52.8691Z" fill="#FFD11A"/>
        <path d="M27.4882 32.5138L7.13281 12.1584C13.3784 5.91288 22.9981 5.40658 28.6191 11.0276C34.24 16.6485 33.7337 26.2682 27.4882 32.5138Z" fill="#FFD11A"/>
    </symbol>
    <symbol id="contact1" width="80" height="80" viewBox="0 0 80 80">
        <path d="M40 24C40 32.8366 32.8366 40 24 40C15.1634 40 8 32.8366 8 24C8 15.1634 15.1634 8 24 8C32.8366 8 40 15.1634 40 24Z" fill="#404040"/>
        <path d="M72 24C72 32.8366 64.8366 40 56 40C47.1634 40 40 32.8366 40 24C40 15.1634 47.1634 8 56 8C64.8366 8 72 15.1634 72 24Z" fill="#FFD11A"/>
        <path d="M72 56C72 64.8366 64.8366 72 56 72C47.1634 72 40 64.8366 40 56C40 47.1634 47.1634 40 56 40C64.8366 40 72 47.1634 72 56Z" fill="#404040"/>
        <path d="M40 56C40 64.8366 32.8366 72 24 72C15.1634 72 8 64.8366 8 56C8 47.1634 15.1634 40 24 40C32.8366 40 40 47.1634 40 56Z" fill="#FFD11A"/>
    </symbol>
    <symbol id="contact2" width="80" height="80" viewBox="0 0 80 80">
        <path d="M8 29.9995C8 38.8739 13.2545 46.5211 20.8221 49.9995H8C8 62.1498 17.8497 71.9995 30 71.9995C38.8744 71.9995 46.5216 66.745 50 59.1775V71.9995C62.1503 71.9995 72 62.1498 72 49.9995C72 41.1251 66.7455 33.478 59.1779 29.9995H72C72 17.8492 62.1503 7.99951 50 7.99951C41.1256 7.99951 33.4784 13.254 30 20.8216V7.99951C17.8497 7.99951 8 17.8492 8 29.9995Z" fill="#404040"/>
        <path d="M50 39.9996C50 45.5225 45.5228 49.9996 40 49.9996C34.4772 49.9996 30 45.5225 30 39.9996C30 34.4768 34.4772 29.9996 40 29.9996C45.5228 29.9996 50 34.4768 50 39.9996Z" fill="#FFD11A"/>
    </symbol>
</svg>